<?xml version="1.0" encoding="utf-8"?>
<!-- Generator: Adobe Illustrator 25.0.0, SVG Export Plug-In . SVG Version: 6.00 Build 0)  -->
<svg version="1.1" id="Capa_1" xmlns="http://www.w3.org/2000/svg" xmlns:xlink="http://www.w3.org/1999/xlink" x="0px" y="0px"
	 viewBox="0 0 80 62.6" style="enable-background:new 0 0 80 62.6;" xml:space="preserve">
<style type="text/css">
	.st0{fill:#060606;}
</style>
<path class="st0" d="M5.12,7.7c1.23,0,2.26,0,3.29,0c2.13-0.01,4.26-0.01,6.39-0.04c0.74-0.01,1.2,0.25,1.49,0.99
	c2.46,6.46,4.94,12.91,7.43,19.37c1.51,3.91,3.02,7.82,4.54,11.73c0.04,0.11,0.11,0.21,0.26,0.51c0.22-0.4,0.4-0.66,0.51-0.94
	c2.48-6.46,4.93-12.92,7.44-19.37c0.77-1.97,1.5-4.01,2.6-5.8c2.58-4.22,6.52-6.28,11.45-6.37c5.17-0.09,10.34-0.12,15.51-0.15
	c2.66-0.01,5.33,0.04,7.99,0.07c0.24,0,0.49,0.04,0.87,0.07c-0.23,0.71-0.42,1.35-0.66,1.98c-0.95,2.52-1.92,5.03-2.88,7.54
	c-0.53,1.38-0.53,1.36-2.04,1.35c-5.86-0.01-11.72-0.01-17.58,0c-2.14,0.01-3.47,0.86-3.98,2.5c-0.66,2.09,0.56,4.14,2.71,4.53
	c0.64,0.11,1.31,0.13,1.96,0.14c3.01,0.03,6.02-0.02,9.02,0.07c6.74,0.19,12.58,5.69,13.32,12.41c0.52,4.72-0.68,8.9-4,12.33
	c-2.65,2.74-5.97,4.12-9.76,4.17c-7.18,0.08-14.35,0.06-21.53,0.08c-1.34,0-1.45-0.14-0.97-1.41c1.02-2.76,2.06-5.51,3.1-8.26
	c0.41-1.09,0.95-1.4,2.27-1.39c5.11,0.03,10.21,0.06,15.32,0.07c0.59,0,1.19-0.04,1.78-0.1c1.66-0.19,2.97-1.61,3.06-3.3
	c0.09-1.68-0.97-3.19-2.63-3.52c-1.1-0.21-2.24-0.24-3.36-0.26c-2.16-0.04-4.32-0.04-6.49-0.01c-3.16,0.05-6.07-0.74-8.71-2.49
	c-0.18-0.12-0.36-0.23-0.68-0.43c-0.56,1.41-1.12,2.76-1.63,4.12c-1.9,5-3.78,10.01-5.69,15.01c-0.59,1.54-1.5,2.09-3.1,2.06
	c-2.44-0.05-4.88-0.1-7.32-0.08c-0.99,0.01-1.52-0.32-1.88-1.28c-2.67-7.09-5.4-14.15-8.1-21.22C11.81,25.54,9.2,18.7,6.6,11.86
	c-0.39-1.02-0.79-2.04-1.17-3.07C5.32,8.51,5.26,8.21,5.12,7.7z"/>
</svg>
