<svg width="35" height="35" viewBox="0 0 38 42" fill="none" xmlns="http://www.w3.org/2000/svg">
<path d="M0.373047 0L3.73898 37.7874L18.852 42L34.005 37.7727L37.373 0H0.373047ZM30.3786 8.6583L29.2566 21.2457L29.2608 21.315L29.2566 21.4704L28.4582 30.2694L28.372 31.0527L18.873 33.6777L18.8646 33.6861L9.38457 31.0443L8.74164 23.7678H13.3892L13.7191 27.468L18.873 28.8645L24.0438 27.4491L24.5901 21.4242H13.7821L13.6897 20.4057L13.4775 18.0201L13.3682 16.7391H25.004L25.4284 12.0519H7.69951L7.60706 11.0334L7.39695 8.6457L7.2856 7.3647H30.4899L30.3786 8.6583Z" fill="white"/>
</svg>
