<svg width="35" height="35" viewBox="0 0 48 42" fill="none" xmlns="http://www.w3.org/2000/svg">
<path d="M24.3184 16.8729C26.57 16.8729 28.4063 18.7072 28.4063 21C28.4063 23.1836 26.57 25.0397 24.3184 25.0397C22.0667 25.0397 20.2305 23.1836 20.2305 21C20.2305 18.7072 22.0667 16.8729 24.3184 16.8729ZM14.197 38.469C15.5742 39.2988 18.5909 38.0323 22.0667 34.7568C20.93 33.4685 19.8151 32.071 18.7658 30.608C17.0042 30.4396 15.2528 30.1771 13.5193 29.8218C12.4044 34.4948 12.8198 37.7047 14.197 38.469ZM15.7491 25.935L15.1151 24.8213C14.8746 25.4546 14.6342 26.0878 14.4812 26.6993C15.0714 26.8303 15.7272 26.9395 16.4049 27.0486L15.7491 25.935ZM30.0458 24.2754L31.8165 21L30.0458 17.7246C29.39 16.5672 28.6905 15.5409 28.0565 14.5146C26.876 14.4491 25.63 14.4491 24.3184 14.4491C23.0067 14.4491 21.7607 14.4491 20.5802 14.5146C19.9463 15.5409 19.2467 16.5672 18.5909 17.7246L16.8202 21L18.5909 24.2754C19.2467 25.4328 19.9463 26.4591 20.5802 27.4854C21.7607 27.5509 23.0067 27.5509 24.3184 27.5509C25.63 27.5509 26.876 27.5509 28.0565 27.4854C28.6905 26.4591 29.39 25.4328 30.0458 24.2754ZM24.3184 9.60147C23.903 10.0819 23.4658 10.5841 23.0286 11.1737H25.6081C25.1709 10.5841 24.7337 10.0819 24.3184 9.60147ZM24.3184 32.3985C24.7337 31.9181 25.1709 31.4159 25.6081 30.8263H23.0286C23.4658 31.4159 23.903 31.9181 24.3184 32.3985ZM34.4179 3.53099C33.0625 2.70122 30.0458 3.96772 26.57 7.24316C27.7067 8.5315 28.8216 9.92902 29.8709 11.392C31.6635 11.5667 33.4342 11.8288 35.1174 12.1782C36.2323 7.50519 35.817 4.29526 34.4179 3.53099ZM32.8877 16.065L33.5216 17.1787C33.7621 16.5454 34.0025 15.9122 34.1556 15.3007C33.5653 15.1697 32.9095 15.0605 32.2318 14.9514L32.8877 16.065ZM36.0574 0.670445C39.2709 2.50469 39.6207 7.3305 38.2653 12.9643C43.8179 14.602 47.8184 17.3097 47.8184 21C47.8184 24.6903 43.8179 27.398 38.2653 29.0357C39.6207 34.6695 39.2709 39.4953 36.0574 41.3296C32.8658 43.1638 28.5156 41.0675 24.3184 37.0715C20.1211 41.0675 15.7709 43.1638 12.5574 41.3296C9.3658 39.4953 9.01603 34.6695 10.3714 29.0357C4.81882 27.398 0.818359 24.6903 0.818359 21C0.818359 17.3097 4.81882 14.602 10.3714 12.9643C9.01603 7.3305 9.3658 2.50469 12.5574 0.670445C15.7709 -1.1638 20.1211 0.93248 24.3184 4.92851C28.5156 0.93248 32.8658 -1.1638 36.0574 0.670445ZM35.4235 21C36.1667 22.6377 36.8225 24.2754 37.3691 25.935C41.9598 24.5593 44.5393 22.594 44.5393 21C44.5393 19.406 41.9598 17.4407 37.3691 16.065C36.8225 17.7246 36.1667 19.3623 35.4235 21ZM13.2132 21C12.47 19.3623 11.8142 17.7246 11.2677 16.065C6.67696 17.4407 4.09743 19.406 4.09743 21C4.09743 22.594 6.67696 24.5593 11.2677 25.935C11.8142 24.2754 12.47 22.6377 13.2132 21ZM32.8877 25.935L32.2318 27.0486C32.9095 26.9395 33.5653 26.8303 34.1556 26.6993C34.0025 26.0878 33.7621 25.4546 33.5216 24.8213L32.8877 25.935ZM26.57 34.7568C30.0458 38.0323 33.0625 39.2988 34.4179 38.469C35.817 37.7047 36.2323 34.4948 35.1174 29.8218C33.4342 30.1712 31.6635 30.4333 29.8709 30.608C28.8216 32.071 27.7067 33.4685 26.57 34.7568ZM15.7491 16.065L16.4049 14.9514C15.7272 15.0605 15.0714 15.1697 14.4812 15.3007C14.6342 15.9122 14.8746 16.5454 15.1151 17.1787L15.7491 16.065ZM22.0667 7.24316C18.5909 3.96772 15.5742 2.70122 14.197 3.53099C12.8198 4.29526 12.4044 7.50519 13.5193 12.1782C15.2528 11.8229 17.0042 11.5604 18.7658 11.392C19.8151 9.92902 20.93 8.5315 22.0667 7.24316Z" fill="white"/>
</svg>
